<?xml version="1.0" encoding="UTF-8"?>
<svg xmlns="http://www.w3.org/2000/svg" xmlns:xlink="http://www.w3.org/1999/xlink" width="500px" height="234px" viewBox="0 0 499 234" version="1.1">
<g id="surface1">
<path style=" stroke:none;fill-rule:nonzero;fill:rgb(0%,0%,0%);fill-opacity:1;" d="M 103.347656 1.777344 C 88.496094 3.199219 85.414062 3.550781 84.828125 3.863281 C 84.226562 4.175781 82.609375 6.496094 74.324219 18.847656 C 68.925781 26.890625 64.324219 33.855469 64.089844 34.34375 C 63.660156 35.203125 63.640625 35.398438 63.582031 42.480469 C 63.542969 47.105469 63.582031 49.992188 63.71875 50.480469 C 64.011719 51.515625 64.558594 51.984375 67.910156 54.03125 C 69.488281 54.988281 70.835938 55.828125 70.894531 55.886719 C 70.933594 55.925781 68.75 58.929688 66.039062 62.578125 C 63.3125 66.207031 60.972656 69.484375 60.816406 69.855469 C 60.582031 70.421875 60.523438 71.90625 60.523438 78.148438 C 60.523438 85.644531 60.523438 85.777344 60.953125 86.441406 C 61.1875 86.832031 63.425781 88.882812 65.960938 91.027344 C 68.476562 93.175781 70.503906 94.96875 70.464844 94.988281 C 70.425781 95.027344 64.636719 94.304688 57.617188 93.371094 L 44.851562 91.671875 L 44.109375 92.042969 C 43.683594 92.257812 43.253906 92.667969 43.058594 93.078125 C 42.003906 95.164062 0.507812 192.671875 0.273438 193.609375 C 0.0390625 194.484375 0 196.027344 0.0390625 201.550781 L 0.0976562 208.398438 L 0.78125 209.042969 C 1.304688 209.550781 3.15625 210.429688 8.578125 212.75 C 12.496094 214.410156 23.507812 219.132812 33.078125 223.210938 C 44.8125 228.222656 50.679688 230.644531 51.148438 230.644531 C 51.617188 230.644531 51.925781 230.507812 52.179688 230.175781 C 52.375 229.921875 55.535156 219.96875 59.160156 208.046875 C 62.804688 196.105469 65.824219 186.347656 65.882812 186.347656 C 65.941406 186.347656 68.632812 191.109375 71.847656 196.945312 C 78.027344 208.046875 78.164062 208.261719 79.097656 207.695312 C 79.273438 207.578125 82.859375 203.285156 87.03125 198.15625 L 94.632812 188.828125 L 94.769531 189.589844 C 94.847656 190 95.453125 199.519531 96.097656 210.742188 C 96.738281 221.960938 97.324219 231.503906 97.382812 231.96875 C 97.519531 233.023438 98.027344 233.570312 98.902344 233.570312 C 99.273438 233.570312 103.152344 232.828125 107.519531 231.929688 C 111.90625 231.015625 120.792969 229.179688 127.285156 227.832031 C 133.773438 226.507812 139.464844 225.316406 139.953125 225.199219 C 140.734375 225.023438 142.332031 225.277344 155.234375 227.71875 C 163.148438 229.21875 169.835938 230.449219 170.109375 230.449219 C 170.382812 230.449219 170.828125 230.214844 171.121094 229.921875 C 171.628906 229.394531 171.726562 228.925781 173.460938 218.546875 C 174.457031 212.59375 175.292969 207.695312 175.332031 207.65625 C 175.410156 207.578125 189.464844 205.472656 189.933594 205.472656 C 190.320312 205.472656 190.496094 206.214844 192.738281 217.140625 C 194.0625 223.542969 195.273438 228.964844 195.410156 229.199219 C 195.546875 229.414062 195.914062 229.707031 196.226562 229.84375 C 196.792969 230.078125 196.695312 230.097656 223.03125 225.101562 C 226.753906 224.398438 229.871094 223.8125 229.96875 223.8125 C 230.066406 223.8125 230.261719 224.847656 230.398438 226.097656 C 230.632812 228.183594 230.691406 228.4375 231.195312 228.925781 C 231.605469 229.355469 231.917969 229.472656 232.5625 229.472656 C 233.027344 229.472656 242.171875 228.671875 252.871094 227.71875 C 266.457031 226.488281 272.5 225.863281 272.890625 225.667969 C 273.183594 225.511719 273.496094 225.238281 273.59375 225.042969 C 273.691406 224.847656 273.808594 222.019531 273.867188 218.742188 L 273.960938 212.808594 L 279.5 221.277344 C 282.539062 225.941406 285.289062 230 285.597656 230.292969 C 286.632812 231.308594 286.457031 231.367188 298.230469 226.058594 C 305.246094 222.898438 315.480469 218.292969 316.144531 218.019531 L 316.804688 217.746094 L 316.671875 223.074219 C 316.535156 228.90625 316.574219 229.199219 317.585938 229.550781 C 318.152344 229.765625 318.484375 229.746094 343.921875 228.007812 C 353.628906 227.347656 357.097656 227.035156 357.507812 226.820312 C 357.816406 226.664062 358.1875 226.292969 358.34375 225.980469 C 358.5 225.6875 359.746094 219.210938 361.09375 211.597656 C 362.4375 204.007812 363.566406 197.765625 363.585938 197.726562 C 363.625 197.707031 365.128906 202 366.941406 207.265625 C 370.371094 217.21875 370.625 217.785156 371.890625 218.449219 C 372.164062 218.585938 382.925781 222.136719 395.789062 226.351562 C 417.035156 233.296875 419.277344 233.980469 420.152344 233.902344 C 420.875 233.824219 423.527344 232.710938 430.484375 229.511719 C 435.632812 227.171875 445.589844 222.625 452.609375 219.421875 C 459.625 216.222656 465.667969 213.394531 466.019531 213.140625 C 466.371094 212.867188 466.839844 212.28125 467.050781 211.851562 C 467.246094 211.402344 470.152344 200.222656 473.503906 187.03125 L 479.585938 163.03125 L 479.664062 156.652344 C 479.703125 152.496094 479.644531 150.015625 479.507812 149.507812 C 479.371094 148.980469 474.421875 141.820312 464.636719 127.984375 C 451.109375 108.84375 449.917969 107.203125 449.101562 106.792969 C 448.339844 106.40625 446.410156 106.132812 434.148438 104.628906 C 426.390625 103.691406 420.058594 102.890625 420.058594 102.832031 C 420.058594 102.773438 421.695312 102.035156 423.722656 101.175781 C 425.730469 100.335938 427.5625 99.515625 427.816406 99.359375 C 428.808594 98.714844 428.828125 98.558594 428.828125 90.226562 C 428.828125 82.851562 428.808594 82.421875 428.4375 81.679688 C 428.144531 81.078125 426.761719 79.789062 423.019531 76.609375 C 418.011719 72.355469 417.972656 72.316406 418.242188 71.828125 C 418.378906 71.535156 419.84375 63.28125 421.480469 53.464844 L 424.441406 35.609375 L 424.441406 29.855469 C 424.441406 24.273438 424.421875 24.078125 424.03125 23.511719 C 423.742188 23.121094 421.089844 21.445312 415.847656 18.34375 C 395.945312 6.632812 391.910156 4.253906 391.324219 3.960938 C 390.972656 3.765625 390.292969 3.648438 389.648438 3.648438 C 389.0625 3.667969 378.226562 5.25 365.574219 7.199219 C 352.925781 9.152344 342.457031 10.730469 342.320312 10.730469 C 342.183594 10.730469 341.796875 10.984375 341.484375 11.296875 C 340.9375 11.84375 340.917969 11.941406 340.917969 13.640625 C 340.917969 14.925781 340.859375 15.414062 340.683594 15.414062 C 340.46875 15.414062 330.917969 13.757812 309.730469 10.050781 C 295.65625 7.589844 293.027344 7.160156 292.519531 7.296875 C 292.226562 7.355469 291.855469 7.628906 291.679688 7.902344 C 291.523438 8.15625 290.726562 10.671875 289.945312 13.484375 C 289.148438 16.292969 288.464844 18.617188 288.445312 18.636719 C 288.40625 18.675781 283.164062 15.882812 276.789062 12.429688 C 266.847656 7.0625 265.054688 6.167969 264.214844 6.089844 C 263.515625 6.03125 256.886719 7.179688 240.339844 10.226562 C 227.746094 12.546875 217.105469 14.519531 216.714844 14.632812 C 215.425781 15.003906 215.390625 15.121094 215.390625 20.429688 C 215.390625 23.648438 215.332031 25.171875 215.175781 25.171875 C 214.960938 25.171875 189.074219 21.738281 187.867188 21.542969 L 187.144531 21.425781 L 187.085938 17.835938 C 187.027344 14.285156 187.027344 14.246094 186.519531 13.757812 C 186.035156 13.269531 185.898438 13.25 177.847656 12.488281 C 152.898438 10.128906 144.496094 9.367188 143.753906 9.367188 C 142.507812 9.367188 142.234375 9.796875 142 12.136719 L 141.804688 14.089844 L 139.078125 11.980469 C 127.089844 2.75 124.554688 0.839844 123.792969 0.449219 C 123.230469 0.15625 122.625 0 122.039062 0.0195312 C 121.554688 0.0390625 113.132812 0.820312 103.347656 1.777344 Z M 390.058594 11.179688 C 392.691406 12.546875 415.75 26.285156 416.214844 26.753906 C 416.507812 27.066406 416.742188 27.492188 416.742188 27.726562 C 416.742188 27.941406 415.730469 34.285156 414.480469 41.816406 C 412.84375 51.75 412.125 55.671875 411.871094 56.101562 C 411.617188 56.507812 409.570312 57.894531 405.066406 60.683594 C 401.519531 62.890625 398.632812 64.746094 398.671875 64.800781 C 398.691406 64.878906 403.46875 68.996094 409.296875 73.972656 C 418.476562 81.796875 419.882812 83.046875 419.824219 83.476562 C 419.765625 83.90625 418.730469 84.394531 408.070312 88.902344 C 401.265625 91.789062 396.140625 93.859375 395.789062 93.859375 C 395.457031 93.859375 395.066406 93.742188 394.929688 93.605469 C 394.792969 93.488281 390.835938 87.4375 386.121094 80.179688 C 378.03125 67.710938 377.523438 66.988281 377.058594 67.085938 L 376.570312 67.183594 L 376.6875 69.738281 C 376.746094 71.144531 376.921875 76.6875 377.097656 82.03125 L 377.386719 91.789062 L 376.941406 92.21875 C 376.511719 92.628906 376.023438 92.707031 367.019531 93.488281 C 361.792969 93.9375 357.3125 94.246094 357.039062 94.167969 C 356.648438 94.070312 356.472656 93.859375 356.335938 93.3125 C 356.21875 92.921875 354.992188 81.429688 353.609375 67.808594 L 351.09375 43.027344 L 353.023438 31.511719 C 354.074219 25.171875 354.953125 19.6875 354.953125 19.296875 C 354.953125 18.1875 354.464844 17.855469 352.28125 17.464844 C 351.230469 17.269531 350.058594 17.054688 349.691406 16.976562 C 349.046875 16.839844 349.027344 16.839844 349.496094 16.703125 C 350.390625 16.46875 387.582031 10.769531 388.402344 10.75 C 388.871094 10.730469 389.53125 10.90625 390.058594 11.179688 Z M 317.390625 18.441406 C 328.132812 20.3125 338.988281 22.1875 341.503906 22.636719 C 347.214844 23.609375 346.921875 23.53125 347.058594 23.980469 C 347.234375 24.527344 344.09375 42.949219 343.785156 43.28125 C 343.550781 43.515625 341.621094 42.988281 330.566406 39.632812 C 323.472656 37.484375 317.605469 35.746094 317.566406 35.785156 C 317.429688 35.941406 314.058594 48.488281 314.136719 48.566406 C 314.175781 48.625 319.417969 48.742188 325.773438 48.839844 C 334.992188 48.976562 337.371094 49.054688 337.585938 49.269531 C 337.820312 49.503906 337.703125 50.65625 336.84375 57.210938 C 336.144531 62.519531 335.753906 64.957031 335.558594 65.152344 C 335.304688 65.40625 333.902344 65.230469 324.601562 63.828125 C 318.734375 62.949219 313.589844 62.167969 313.160156 62.109375 C 312.5 62.011719 312.421875 62.03125 312.519531 62.363281 C 312.578125 62.558594 313.042969 65.660156 313.550781 69.210938 C 314.429688 75.339844 314.507812 75.710938 314.875 75.710938 C 315.109375 75.710938 321.425781 74.792969 328.929688 73.660156 C 341.738281 71.75 342.59375 71.652344 342.886719 71.964844 C 343.140625 72.21875 343.589844 74.832031 344.71875 82.304688 C 346.023438 90.871094 346.199219 92.355469 345.96875 92.589844 C 345.734375 92.824219 341.5625 92.726562 317.625 91.867188 C 292.382812 90.988281 289.515625 90.851562 289.207031 90.558594 C 288.933594 90.285156 288.503906 88.003906 287.121094 79.417969 C 286.144531 73.484375 285.367188 68.453125 285.367188 68.21875 C 285.367188 67.945312 286.613281 66.636719 289.1875 64.199219 C 291.292969 62.207031 293.222656 60.238281 293.472656 59.789062 C 293.882812 59.085938 294.234375 57.074219 296.417969 42.167969 L 298.894531 25.328125 L 298.523438 24.625 C 298.230469 24.097656 297.722656 23.6875 296.535156 23.023438 C 295.65625 22.539062 294.898438 22.089844 294.839844 22.03125 C 294.722656 21.914062 296.378906 15.941406 296.691406 15.375 C 296.789062 15.179688 297.101562 15.023438 297.371094 15.023438 C 297.644531 15.023438 306.652344 16.566406 317.390625 18.441406 Z M 162.371094 17.953125 C 169.289062 18.597656 175.625 19.179688 176.480469 19.257812 C 177.632812 19.355469 178.140625 19.472656 178.488281 19.785156 L 178.976562 20.195312 L 175.019531 44.625 C 172.835938 58.070312 171.101562 69.09375 171.160156 69.132812 C 171.257812 69.25 193.128906 67.828125 193.207031 67.710938 C 193.246094 67.652344 192.914062 59.574219 192.464844 49.757812 C 192 39.941406 191.628906 31.394531 191.628906 30.792969 C 191.609375 28.859375 190.476562 28.839844 206.324219 30.949219 C 213.945312 31.941406 220.496094 32.859375 220.886719 32.976562 C 221.390625 33.113281 221.664062 33.328125 221.722656 33.621094 C 221.898438 34.285156 214.882812 75.632812 214.472656 76.414062 C 214.042969 77.214844 201.472656 91.613281 200.828125 92.042969 C 200.261719 92.414062 200.632812 92.414062 179.71875 91.886719 C 165.761719 91.535156 163.539062 91.4375 162.914062 91.164062 C 162.273438 90.871094 147.652344 77.914062 145.820312 76.023438 C 145.273438 75.457031 145.140625 75.164062 145.082031 74.304688 C 145.003906 73.328125 145.140625 72.941406 147.476562 67.710938 C 149.039062 64.179688 149.972656 61.835938 150.03125 61.269531 C 150.148438 60.140625 149.601562 58.03125 149 57.230469 C 148.726562 56.878906 147.984375 56.238281 147.339844 55.789062 L 146.152344 54.988281 L 146.269531 53.699219 C 146.328125 52.976562 146.601562 48.664062 146.875 44.097656 C 147.148438 39.535156 147.417969 35.457031 147.476562 35.027344 C 147.554688 34.382812 148.0625 33.621094 150.207031 30.929688 C 151.84375 28.859375 152.898438 27.335938 153.03125 26.871094 C 153.285156 25.953125 153.070312 23.960938 152.625 22.890625 C 152.351562 22.285156 151.824219 21.738281 150.402344 20.644531 C 148.550781 19.238281 148.53125 19.199219 148.53125 18.382812 C 148.53125 17.5625 149.019531 16.78125 149.5625 16.78125 C 149.679688 16.78125 155.449219 17.308594 162.371094 17.953125 Z M 282.363281 101.878906 C 291.371094 107.027344 317.917969 122.679688 318.269531 123.050781 C 318.523438 123.359375 318.699219 123.789062 318.699219 124.179688 C 318.699219 125.234375 312.5 157.253906 312.148438 157.976562 C 311.777344 158.757812 312.109375 158.5625 301.582031 164.691406 C 297.0625 167.324219 293.359375 169.527344 293.359375 169.605469 C 293.359375 169.683594 299.671875 174.972656 307.390625 181.394531 C 315.109375 187.792969 321.464844 193.199219 321.523438 193.394531 C 321.679688 193.882812 321.523438 194.097656 320.683594 194.523438 C 317.742188 196.027344 290.140625 208.203125 289.671875 208.203125 C 289.34375 208.203125 288.933594 208.027344 288.699219 207.753906 C 288.464844 207.519531 283.164062 199.519531 276.90625 189.960938 C 265.855469 173.042969 265.542969 172.59375 264.976562 172.652344 C 264.664062 172.691406 264.371094 172.75 264.332031 172.789062 C 264.292969 172.828125 264.507812 179.519531 264.800781 187.65625 C 265.074219 195.792969 265.289062 203.089844 265.25 203.890625 C 265.191406 205.179688 265.132812 205.375 264.703125 205.6875 C 264.292969 205.960938 262.636719 206.175781 255.171875 206.839844 C 250.222656 207.285156 246.128906 207.617188 246.109375 207.578125 C 246.070312 207.539062 243.28125 199.519531 239.890625 189.765625 L 233.730469 172.007812 L 230.183594 141.351562 C 228.234375 124.492188 226.695312 110.464844 226.773438 110.191406 C 226.832031 109.898438 227.066406 109.585938 227.257812 109.488281 C 227.453125 109.371094 239.050781 107.4375 253.027344 105.175781 C 267.003906 102.910156 278.542969 101.019531 278.640625 100.980469 C 278.757812 100.921875 279.285156 100.921875 279.828125 100.941406 C 280.589844 101 281.195312 101.214844 282.363281 101.878906 Z M 181.628906 107.90625 C 193.128906 109.078125 202.699219 110.132812 202.875 110.230469 C 203.050781 110.328125 203.363281 110.582031 203.558594 110.773438 C 204.0625 111.339844 235.113281 200.789062 234.976562 201.316406 C 234.917969 201.550781 234.707031 201.84375 234.511719 201.941406 C 234.316406 202.058594 228.058594 203.285156 220.632812 204.691406 C 213.1875 206.097656 206.226562 207.402344 205.175781 207.617188 C 204.121094 207.832031 203.050781 208.007812 202.816406 208.007812 C 201.800781 208.007812 201.726562 207.753906 199.210938 195.519531 C 197.902344 189.140625 196.753906 183.851562 196.695312 183.773438 C 196.558594 183.617188 168.492188 187.773438 168.277344 187.96875 C 168.21875 188.046875 167.4375 192.4375 166.542969 197.765625 C 165.644531 203.070312 164.824219 207.597656 164.710938 207.8125 C 164.59375 208.027344 164.28125 208.261719 164.027344 208.320312 C 163.753906 208.378906 161.550781 208.066406 159.035156 207.597656 C 155.136719 206.855469 154.496094 206.703125 154.359375 206.351562 C 154.28125 206.136719 151.902344 194.542969 149.097656 180.574219 L 143.988281 155.1875 L 150.949219 131.128906 C 154.789062 117.898438 158.003906 106.851562 158.101562 106.597656 C 158.316406 106.035156 159.328125 105.566406 160.128906 105.683594 C 160.441406 105.742188 170.128906 106.734375 181.628906 107.90625 Z M 419.804688 111.125 C 432.648438 112.6875 443.523438 114.054688 443.972656 114.171875 C 444.421875 114.289062 445.027344 114.660156 445.359375 115.007812 C 446.546875 116.277344 470.425781 150.328125 470.601562 151.011719 C 470.753906 151.617188 470.113281 154.40625 465.492188 172.671875 C 462.589844 184.203125 460.074219 193.84375 459.917969 194.078125 C 459.761719 194.328125 459.429688 194.660156 459.175781 194.816406 C 458.945312 194.972656 450.152344 199.03125 439.644531 203.832031 C 426.078125 210.039062 420.289062 212.574219 419.667969 212.652344 C 418.90625 212.710938 415.90625 211.792969 398.617188 206.15625 C 387.523438 202.527344 378.207031 199.441406 377.914062 199.304688 C 377.621094 199.148438 377.230469 198.816406 377.078125 198.582031 C 376.667969 197.960938 366.84375 169.566406 366.84375 169.023438 C 366.84375 168.554688 372.417969 136.628906 372.613281 135.945312 C 372.789062 135.382812 393.703125 109 394.289062 108.648438 C 394.582031 108.453125 395.183594 108.296875 395.632812 108.296875 C 396.082031 108.296875 406.957031 109.566406 419.804688 111.125 Z M 419.804688 111.125 "/>
<path style=" stroke:none;fill-rule:nonzero;fill:rgb(0%,0%,0%);fill-opacity:1;" d="M 375.515625 31.84375 C 375.574219 32.957031 375.75 38.675781 375.925781 44.585938 C 376.101562 50.480469 376.238281 55.339844 376.257812 55.339844 C 376.375 55.457031 390.742188 53.015625 390.820312 52.878906 C 390.953125 52.644531 393.410156 36.292969 393.3125 36.195312 C 393.234375 36.097656 375.632812 29.855469 375.476562 29.855469 C 375.4375 29.855469 375.457031 30.753906 375.515625 31.84375 Z M 375.515625 31.84375 "/>
<path style=" stroke:none;fill-rule:nonzero;fill:rgb(0%,0%,0%);fill-opacity:1;" d="M 262.675781 127.1875 C 262.597656 127.34375 263.671875 157.078125 263.769531 157.175781 C 263.808594 157.214844 282.246094 152.980469 282.382812 152.902344 C 282.539062 152.804688 284.761719 133.195312 284.644531 133.078125 C 284.566406 133 280.375 131.828125 275.328125 130.484375 C 270.296875 129.117188 265.40625 127.789062 264.46875 127.535156 C 263.515625 127.285156 262.714844 127.128906 262.675781 127.1875 Z M 262.675781 127.1875 "/>
<path style=" stroke:none;fill-rule:nonzero;fill:rgb(0%,0%,0%);fill-opacity:1;" d="M 177.085938 135.070312 C 176.929688 135.578125 172.523438 162.230469 172.582031 162.308594 C 172.621094 162.328125 176.074219 162.484375 180.226562 162.640625 C 184.394531 162.796875 188.839844 162.972656 190.105469 163.03125 C 191.921875 163.128906 192.386719 163.109375 192.386719 162.894531 C 192.386719 162.425781 186.929688 136.101562 186.753906 135.808594 C 186.636719 135.578125 185.703125 135.441406 182.621094 135.1875 C 177.652344 134.777344 177.183594 134.777344 177.085938 135.070312 Z M 177.085938 135.070312 "/>
<path style=" stroke:none;fill-rule:nonzero;fill:rgb(0%,0%,0%);fill-opacity:1;" d="M 409.453125 142.289062 C 409.296875 142.542969 406.703125 146.992188 403.683594 152.183594 L 398.207031 161.625 L 399.257812 162.71875 C 399.84375 163.324219 403.410156 167.109375 407.210938 171.128906 C 410.992188 175.148438 414.152344 178.464844 414.210938 178.503906 C 414.265625 178.523438 418.691406 176.398438 424.011719 173.761719 C 433.371094 169.160156 433.703125 168.984375 433.703125 168.4375 C 433.703125 167.578125 431.207031 147.675781 431.070312 147.558594 C 430.953125 147.441406 410.328125 141.859375 409.980469 141.859375 C 409.84375 141.859375 409.609375 142.054688 409.453125 142.289062 Z M 409.453125 142.289062 "/>
<path style=" stroke:none;fill-rule:nonzero;fill:rgb(0%,0%,0%);fill-opacity:1;" d="M 475.804688 208.789062 L 475.804688 209.765625 L 480.09375 209.765625 L 480.09375 220.691406 L 481.847656 220.691406 L 481.847656 209.765625 L 486.136719 209.765625 L 486.136719 207.8125 L 475.804688 207.8125 Z M 475.804688 208.789062 "/>
<path style=" stroke:none;fill-rule:nonzero;fill:rgb(0%,0%,0%);fill-opacity:1;" d="M 487.5 214.253906 L 487.5 220.691406 L 489.449219 220.691406 L 489.46875 216.535156 L 489.488281 212.398438 L 490.96875 215.460938 L 492.46875 218.546875 L 494.070312 218.546875 L 495.609375 215.363281 L 497.148438 212.203125 L 497.207031 216.4375 L 497.246094 220.691406 L 499 220.691406 L 499 207.792969 L 498.082031 207.851562 L 497.148438 207.910156 L 495.296875 211.851562 C 494.28125 214.019531 493.386719 215.832031 493.328125 215.910156 C 493.269531 215.96875 492.332031 214.175781 491.28125 211.910156 L 489.351562 207.8125 L 487.5 207.8125 Z M 487.5 214.253906 "/>
</g>
</svg>
