<?xml version="1.0" standalone="no"?>
<!DOCTYPE svg PUBLIC "-//W3C//DTD SVG 20010904//EN"
 "http://www.w3.org/TR/2001/REC-SVG-20010904/DTD/svg10.dtd">
<svg version="1.0" xmlns="http://www.w3.org/2000/svg"
 width="2560.000000pt" height="1199.000000pt" viewBox="0 0 2560.000000 1199.000000"
 preserveAspectRatio="xMidYMid meet">

<g transform="translate(0.000000,1199.000000) scale(0.100000,-0.100000)"
fill="#000000" stroke="none">
<path d="M5302 11899 c-762 -73 -920 -91 -950 -107 -31 -16 -114 -135 -539
-768 -277 -412 -513 -769 -525 -794 -22 -44 -23 -54 -26 -417 -2 -237 0 -385
7 -410 15 -53 43 -77 215 -182 81 -49 150 -92 153 -95 2 -2 -110 -156 -249
-343 -140 -186 -260 -354 -268 -373 -12 -29 -15 -105 -15 -425 0 -384 0 -391
22 -425 12 -20 127 -125 257 -235 129 -110 233 -202 231 -203 -2 -2 -299 35
-659 83 l-655 87 -38 -19 c-22 -11 -44 -32 -54 -53 -54 -107 -2183 -5104
-2195 -5152 -12 -45 -14 -124 -12 -407 l3 -351 35 -33 c27 -26 122 -71 400
-190 201 -85 766 -327 1257 -536 602 -257 903 -381 927 -381 24 0 40 7 53 24
10 13 172 523 358 1134 187 612 342 1112 345 1112 3 0 141 -244 306 -543 317
-569 324 -580 372 -551 9 6 193 226 407 489 l390 478 7 -39 c4 -21 35 -509 68
-1084 33 -575 63 -1064 66 -1088 7 -54 33 -82 78 -82 19 0 218 38 442 84 225
47 681 141 1014 210 333 68 625 129 650 135 40 9 122 -4 784 -129 406 -77 749
-140 763 -140 14 0 37 12 52 27 26 27 31 51 120 583 51 305 94 556 96 558 4 4
725 112 749 112 20 0 29 -38 144 -598 68 -328 130 -606 137 -618 7 -11 26 -26
42 -33 29 -12 24 -13 1375 243 191 36 351 66 356 66 5 0 15 -53 22 -117 12
-107 15 -120 41 -145 21 -22 37 -28 70 -28 24 0 493 41 1042 90 697 63 1007
95 1027 105 15 8 31 22 36 32 5 10 11 155 14 323 l5 304 284 -434 c156 -239
297 -447 313 -462 53 -52 44 -55 648 217 360 162 885 398 919 412 l34 14 -7
-273 c-7 -299 -5 -314 47 -332 29 -11 46 -10 1351 79 498 34 676 50 697 61 16
8 35 27 43 43 8 15 72 347 141 737 69 389 127 709 128 711 2 1 79 -219 172
-489 176 -510 189 -539 254 -573 14 -7 566 -189 1226 -405 1090 -356 1205
-391 1250 -387 37 4 173 61 530 225 264 120 775 353 1135 517 360 164 670 309
688 322 18 14 42 44 53 66 10 23 159 596 331 1272 l312 1230 4 327 c2 213 -1
340 -8 366 -7 27 -261 394 -763 1103 -694 981 -755 1065 -797 1086 -39 20
-138 34 -767 111 -398 48 -723 89 -723 92 0 3 84 41 188 85 103 43 197 85 210
93 51 33 52 41 52 468 0 378 -1 400 -20 438 -15 31 -86 97 -278 260 -257 218
-259 220 -245 245 7 15 82 438 166 941 l152 915 0 295 c0 286 -1 296 -21 325
-15 20 -151 106 -420 265 -1021 600 -1228 722 -1258 737 -18 10 -53 16 -86 16
-30 -1 -586 -82 -1235 -182 -649 -100 -1186 -181 -1193 -181 -7 0 -27 -13 -43
-29 -28 -28 -29 -33 -29 -120 0 -66 -3 -91 -12 -91 -11 0 -501 85 -1588 275
-722 126 -857 148 -883 141 -15 -3 -34 -17 -43 -31 -8 -13 -49 -142 -89 -286
-41 -144 -76 -263 -77 -264 -2 -2 -271 141 -598 318 -510 275 -602 321 -645
325 -36 3 -376 -56 -1225 -212 -646 -119 -1192 -220 -1212 -226 -66 -19 -68
-25 -68 -297 0 -165 -3 -243 -11 -243 -11 0 -1339 176 -1401 186 l-37 6 -3
184 c-3 182 -3 184 -29 209 -25 25 -32 26 -445 65 -1280 121 -1711 160 -1749
160 -64 0 -78 -22 -90 -142 l-10 -100 -140 108 c-615 473 -745 571 -784 591
-29 15 -60 23 -90 22 -25 -1 -457 -41 -959 -90z m14709 -482 c135 -70 1318
-774 1342 -798 15 -16 27 -38 27 -50 0 -11 -52 -336 -116 -722 -84 -509 -121
-710 -134 -732 -13 -21 -118 -92 -349 -235 -182 -113 -330 -208 -328 -211 1
-4 246 -215 545 -470 471 -401 543 -465 540 -487 -3 -22 -56 -47 -603 -278
-349 -148 -612 -254 -630 -254 -17 0 -37 6 -44 13 -7 6 -210 316 -452 688
-415 639 -441 676 -465 671 l-25 -5 6 -131 c3 -72 12 -356 21 -630 l15 -500
-23 -22 c-22 -21 -47 -25 -509 -65 -268 -23 -498 -39 -512 -35 -20 5 -29 16
-36 44 -6 20 -69 609 -140 1307 l-129 1270 99 590 c54 325 99 606 99 626 0 57
-25 74 -137 94 -54 10 -114 21 -133 25 -33 7 -34 7 -10 14 46 12 1954 304
1996 305 24 1 58 -8 85 -22z m-3728 -372 c551 -96 1108 -192 1237 -215 293
-50 278 -46 285 -69 9 -28 -152 -972 -168 -989 -12 -12 -111 15 -678 187 -364
110 -665 199 -667 197 -7 -8 -180 -651 -176 -655 2 -3 271 -9 597 -14 473 -7
595 -11 606 -22 12 -12 6 -71 -38 -407 -36 -272 -56 -397 -66 -407 -13 -13
-85 -4 -562 68 -301 45 -565 85 -587 88 -34 5 -38 4 -33 -13 3 -10 27 -169 53
-351 45 -314 49 -333 68 -333 12 0 336 47 721 105 657 98 701 103 716 87 13
-13 36 -147 94 -530 67 -439 76 -515 64 -527 -12 -12 -226 -7 -1454 37 -1295
45 -1442 52 -1458 67 -14 14 -36 131 -107 571 -50 304 -90 562 -90 574 0 14
64 81 196 206 108 102 207 203 220 226 21 36 39 139 151 903 l127 863 -19 36
c-15 27 -41 48 -102 82 -45 25 -84 48 -87 51 -6 6 79 312 95 341 5 10 21 18
35 18 14 0 476 -79 1027 -175z m-7953 25 c355 -33 680 -63 724 -67 59 -5 85
-11 103 -27 l25 -21 -203 -1252 c-112 -689 -201 -1254 -198 -1256 5 -6 1127
67 1131 73 2 3 -15 417 -38 920 -24 503 -43 941 -43 972 -1 99 -59 100 754 -8
391 -51 727 -98 747 -104 26 -7 40 -18 43 -33 9 -34 -351 -2153 -372 -2193
-22 -41 -667 -779 -700 -801 -29 -19 -10 -19 -1083 8 -716 18 -830 23 -862 37
-33 15 -783 679 -877 776 -28 29 -35 44 -38 88 -4 50 3 70 123 338 80 181 128
301 131 330 6 58 -22 166 -53 207 -14 18 -52 51 -85 74 l-61 41 6 66 c3 37 17
258 31 492 14 234 28 443 31 465 4 33 30 72 140 210 84 106 138 184 145 208
13 47 2 149 -21 204 -14 31 -41 59 -114 115 -95 72 -96 74 -96 116 0 42 25 82
53 82 6 0 302 -27 657 -60z m6156 -4301 c462 -264 1824 -1066 1842 -1085 13
-16 22 -38 22 -58 0 -54 -318 -1695 -336 -1732 -19 -40 -2 -30 -542 -344 -232
-135 -422 -248 -422 -252 0 -4 324 -275 720 -604 396 -328 722 -605 725 -615
8 -25 0 -36 -43 -58 -151 -77 -1567 -701 -1591 -701 -17 0 -38 9 -50 23 -12
12 -284 422 -605 912 -567 867 -583 890 -612 887 -16 -2 -31 -5 -33 -7 -2 -2
9 -345 24 -762 14 -417 25 -791 23 -832 -3 -66 -6 -76 -28 -92 -21 -14 -106
-25 -489 -59 -254 -23 -464 -40 -465 -38 -2 2 -145 413 -319 913 l-316 910
-182 1571 c-100 864 -179 1583 -175 1597 3 15 15 31 25 36 10 6 605 105 1322
221 717 116 1309 213 1314 215 6 3 33 3 61 2 39 -3 70 -14 130 -48z m-5168
-309 c590 -60 1081 -114 1090 -119 9 -5 25 -18 35 -28 26 -29 1619 -4613 1612
-4640 -3 -12 -14 -27 -24 -32 -10 -6 -331 -69 -712 -141 -382 -72 -739 -139
-793 -150 -54 -11 -109 -20 -121 -20 -52 0 -56 13 -185 640 -67 327 -126 598
-129 602 -7 8 -1447 -205 -1458 -215 -3 -4 -43 -229 -89 -502 -46 -272 -88
-504 -94 -515 -6 -11 -22 -23 -35 -26 -14 -3 -127 13 -256 37 -200 38 -233 46
-240 64 -4 11 -126 605 -270 1321 l-262 1301 357 1233 c197 678 362 1244 367
1257 11 29 63 53 104 47 16 -3 513 -54 1103 -114z m12219 -165 c659 -80 1217
-150 1240 -156 23 -6 54 -25 71 -43 61 -65 1286 -1810 1295 -1845 8 -31 -25
-174 -262 -1110 -149 -591 -278 -1085 -286 -1097 -8 -13 -25 -30 -38 -38 -12
-8 -463 -216 -1002 -462 -696 -318 -993 -448 -1025 -452 -39 -3 -193 44 -1080
333 -569 186 -1047 344 -1062 351 -15 8 -35 25 -43 37 -21 32 -525 1487 -525
1515 0 24 286 1660 296 1695 9 29 1082 1381 1112 1399 15 10 46 18 69 18 23 0
581 -65 1240 -145z"/>
<path d="M19265 10358 c3 -57 12 -350 21 -653 9 -302 16 -551 17 -551 6 -6
743 119 747 126 7 12 133 850 128 855 -4 5 -907 325 -915 325 -2 0 -1 -46 2
-102z"/>
<path d="M13476 5472 c-4 -8 51 -1532 56 -1537 2 -2 948 215 955 219 8 5 122
1010 116 1016 -4 4 -219 64 -478 133 -258 70 -509 138 -557 151 -49 13 -90 21
-92 18z"/>
<path d="M9085 5068 c-8 -26 -234 -1392 -231 -1396 2 -1 179 -9 392 -17 214
-8 442 -17 507 -20 93 -5 117 -4 117 7 0 24 -280 1373 -289 1388 -6 12 -54 19
-212 32 -255 21 -279 21 -284 6z"/>
<path d="M21006 4698 c-8 -13 -141 -241 -296 -507 l-281 -484 54 -56 c30 -31
213 -225 408 -431 194 -206 356 -376 359 -378 3 -1 230 108 503 243 480 236
497 245 497 273 0 44 -128 1064 -135 1070 -6 6 -1064 292 -1082 292 -7 0 -19
-10 -27 -22z"/>
<path d="M24410 1290 l0 -50 110 0 110 0 0 -280 0 -280 45 0 45 0 0 280 0 280
110 0 110 0 0 50 0 50 -265 0 -265 0 0 -50z"/>
<path d="M25010 1010 l0 -330 50 0 50 0 1 213 1 212 76 -157 77 -158 41 0 41
0 79 163 79 162 3 -217 2 -218 45 0 45 0 0 331 0 330 -47 -3 -48 -3 -95 -202
c-52 -111 -98 -204 -101 -208 -3 -3 -51 89 -105 205 l-99 210 -47 0 -48 0 0
-330z"/>
</g>
</svg>
